<?xml version="1.0"?><svg width="640" height="480" xmlns="http://www.w3.org/2000/svg">
 <title>orange world map</title>
 <g>
  <title>Layer 1</title>
  <g>
   <path d="m286.539032,106.436485l-2.71286,3.646568l-1.807526,1.823677l-3.615845,2.005165l-0.543091,1.641403c0,0 -1.446838,1.459106 -1.265259,2.371361s0.181549,2.552834 0.181549,2.552834s-2.531342,2.370544 -3.616638,3.099686c-1.085297,0.729164 -2.532135,2.37056 -2.532135,2.37056s-0.903778,1.094536 -1.446045,1.459106c-0.542206,0.36377 -1.445984,1.458298 -2.1698,2.552841c-0.723816,1.094528 -1.446838,1.822876 -1.808319,2.369736c-0.361481,0.54686 -1.446838,1.823685 -1.989105,3.829651c-0.542236,2.00679 -1.989044,4.376526 -1.989044,4.376526l-0.362335,0.911438c0.18158,3.10051 0.180756,3.647369 0.54306,4.741898c0.361511,1.093735 0.723816,0.728348 0.361511,3.099701c-0.361511,2.369751 -0.361511,3.281982 -0.722992,4.376526c-0.361542,1.092911 -1.446838,3.098892 -1.807526,4.011948c-0.362305,0.911438 0.722992,2.552032 0.722992,2.552032s0.54306,2.371353 0.180756,2.918213c-0.361511,0.547668 0.180756,1.641403 0.180756,1.641403s2.16983,1.276016 2.893646,2.005966c0.723022,0.729156 1.989075,1.823685 2.16983,2.370544c0.181519,0.547668 1.627563,3.10051 1.808319,3.647369s1.627563,2.552032 1.989075,3.099701c0.361481,0.547668 2.16983,2.55365 2.16983,2.55365s2.350555,1.822067 2.893616,2.552032c0.542297,0.729141 2.169861,1.093719 2.711304,1.640579c0.54306,0.54686 1.808319,0.36377 2.531342,0.912262c0.723816,0.546844 2.16983,-0.365402 2.893616,0c0.723022,0.364563 2.712891,-0.364594 3.255157,-0.729172c0.542267,-0.364563 1.807526,-1.640579 2.712097,-1.094528c0.903748,0.546051 1.446014,0 2.16983,0.182297c0.722198,0.182281 1.807526,-0.728348 2.530518,-0.728348c0.723816,0 2.531342,-0.729965 3.073578,-0.729965c0.543121,0 2.351379,-1.095337 3.075226,-1.095337c0.722168,0 1.62674,-0.727524 2.530518,-0.36377c0.903748,0.36377 0.542236,-0.728333 2.16983,-0.182281c1.627594,0.546051 2.16983,0 2.712097,0.546051c0.54303,0.547668 1.266876,0.001617 1.809113,0.730774c0.542297,0.728333 1.446045,1.275192 1.62677,2.005157c0.179932,0.72995 1.265259,1.459915 1.265259,1.459915l1.085358,0.181473c0,0 1.447571,-1.093704 1.808289,-0.363754c0.361511,0.729156 1.989075,0.547668 1.989075,0.547668l1.62677,1.822876l0.543091,0.729141c0,0 1.085297,2.918228 0.903717,4.011963c-0.180725,1.093719 -0.180725,3.464279 -0.723022,4.011124c-0.542206,0.547684 -0.903748,2.918228 -0.903748,2.918228s-0.723816,0.729141 0.903748,2.188263c1.627594,1.45993 2.712921,2.735123 3.255188,3.463455c0.54306,0.729965 1.989838,2.736755 2.169006,4.012756c0.18158,1.276016 0.54306,2.005157 1.266876,3.646561c0.723022,1.641403 1.626801,1.823685 1.807526,3.648193c0.181549,1.822876 0.542236,1.823669 0.361511,3.098877c-0.180756,1.27684 -0.723022,1.459106 -0.180756,2.370544c0.542267,0.912262 1.264435,2.55365 1.085297,3.10051c-0.180756,0.546875 -0.54303,2.917419 -0.54303,2.917419l-0.361511,1.094543l-1.626801,3.101318l-1.085297,1.639771c-0.361511,1.276016 -1.084503,2.552841 -0.903748,4.376526c0.179932,1.823669 -0.903748,1.822876 0.542236,3.645752c1.446808,1.824478 2.169067,3.83046 3.073608,5.471863c0.904541,1.640579 1.446777,3.281982 1.62674,4.375717c0.18158,1.094513 0.904602,1.459915 1.266083,2.918213c0.360687,1.459106 0.542267,2.187454 0.542267,3.099686c0,0.911438 -0.18158,3.282806 0.181549,3.829681c0.360718,0.546844 0.542267,2.189056 0.723022,2.918213c0.180756,0.72995 -0.54306,0.912262 0.542236,2.189056c1.085297,1.276031 1.808319,2.005188 2.531311,2.917419s0.542297,0.546875 1.085358,1.8237c0.542236,1.276001 1.265259,2.006775 1.446808,3.099701c0.180756,1.093719 0.360718,3.828827 0.903748,5.105652c0.542267,1.276825 1.265289,2.55365 1.265289,2.55365s1.989868,1.276001 2.712891,1.093719c0.722198,-0.182281 2.16983,-1.822052 3.255157,-1.276001c1.085297,0.546844 1.989044,0 2.892792,0s1.80838,-1.094543 2.712921,-1.094543c0.903748,0 2.169037,-1.459106 2.893616,-1.093719c0.723022,0.36377 1.625977,-0.366211 2.530548,-1.277649c0.904572,-0.910614 1.446808,-1.639771 3.073578,-3.098877c1.627594,-1.459106 1.446777,-1.4599 2.531342,-2.371338c1.085327,-0.912262 2.170624,-2.918243 3.435883,-3.282806s1.62677,-1.639801 1.988281,-2.552032c0.362305,-0.912231 0.542267,-1.459137 1.085327,-2.189087c0.54303,-0.728333 0.180725,0.184753 1.085297,-2.187439c0.904602,-2.371368 1.990692,-3.281982 2.89447,-3.829651c0.903778,-0.546875 1.445984,-1.640594 1.988251,-1.823685s1.446838,0.54686 1.085327,-1.094543c-0.360687,-1.640579 0,-4.011124 -0.360687,-4.558014c-0.362335,-0.548447 -0.905365,1.275208 -0.723816,-1.460709c0.182343,-2.734314 2.16983,-5.470261 2.16983,-5.470261s2.712097,-3.464264 3.616638,-4.011124s1.084503,-1.093735 2.351379,-1.823685c1.264465,-0.728333 3.977356,-2.552032 3.977356,-3.464279s1.085327,-3.282791 1.085327,-3.83046c0,-0.54686 0,-1.093735 -0.360748,-4.194244c-0.362274,-3.098892 0.360748,-2.370544 -0.723785,-5.287964c-1.084503,-2.917389 -1.266876,-6.564774 -1.989044,-7.476212c-0.723816,-0.912262 -0.362335,-3.2836 -0.362335,-4.011948c0,-0.729141 1.266876,-2.552841 1.809113,-3.281982c0.542267,-0.729965 2.892883,-3.648178 2.892883,-3.648178s3.615784,-4.19342 4.881897,-6.198593c1.266052,-2.006775 2.531311,-3.829651 3.435059,-4.558807c0.904602,-0.729141 3.074432,-2.372162 4.339691,-4.195038c1.266083,-1.822876 3.797394,-5.287155 3.978943,-5.835632c0.179932,-0.546051 1.625977,-2.369751 1.625977,-2.369751s1.989075,-2.371353 2.351379,-3.647369c0.360718,-1.276825 2.168243,-8.388458 1.806732,-8.02388c-0.359894,0.365372 -2.530548,0.729141 -3.254364,0.911438c-0.722198,0.18309 1.086121,0.911438 -4.158905,0.547668c-5.242615,-0.365387 -7.954712,0.54686 -7.954712,0.54686c-1.628387,-0.365387 -2.893616,1.458313 -3.436646,-1.094528c-0.542297,-2.552032 -0.904602,-4.011139 -1.988312,-5.834824c-1.085327,-1.823685 -1.809113,-2.552841 -3.435089,-4.924194c-1.62677,-2.369736 -1.447632,-1.276825 -2.89444,-3.098892c-1.446045,-1.823685 -1.808319,-1.277634 -2.712067,-3.647369c-0.903778,-2.370544 -1.626801,-1.458313 -2.712097,-4.741089c-1.085297,-3.283615 -1.808319,-3.648193 -2.350616,-5.471069c-0.54303,-1.822876 -1.265228,-2.371353 -1.627563,-4.011932c-0.361481,-1.641403 -4.519623,-10.02906 -5.062653,-10.576736c-0.54306,-0.546051 -1.446838,-3.46508 -1.266052,-2.917412c0.181519,0.546867 2.71286,2.370544 2.71286,2.370544s1.446045,-0.547668 1.989075,-0.547668c0.542267,0 2.712097,2.006783 2.712097,2.73513c0,0.729958 3.799011,4.195038 4.701965,6.747879c0.903748,2.552826 1.990692,4.376511 2.1698,5.105667s1.989105,3.647369 2.712921,4.741898c0.722198,1.094543 3.072784,3.281982 3.434296,4.376526s3.798218,4.741089 3.798218,7.111649c0,2.370544 1.625916,5.470245 1.807495,6.199402s3.435089,1.642197 3.435089,1.642197l4.340454,-1.094528c0,0 6.508698,-4.195053 7.232513,-4.195053c0.722198,0 6.510315,-2.735123 6.510315,-2.735123s2.349792,-2.187454 3.976532,-3.463455c1.627563,-1.276825 3.435852,-3.646576 3.798248,-4.741913c0.360626,-1.094528 1.084442,-1.276001 2.530457,-2.918213c1.446869,-1.641403 3.435913,-3.281982 2.170654,-4.376526c-1.266052,-1.093719 -1.989838,-0.729156 -3.797394,-2.552826c-1.80835,-1.822876 -1.627533,-1.458313 -2.893646,-3.829666c-1.266083,-2.369736 0.180786,-5.105675 -2.532135,-2.369736c-2.711304,2.735123 -1.62677,3.464264 -4.339661,4.012756c-2.711273,0.546051 -3.797424,2.369736 -5.062653,0.546051s-2.530548,-0.729156 -3.255157,-3.465088c-0.723022,-2.735123 -1.266083,-2.918228 -1.446014,-4.011139c-0.179962,-1.094528 0,-1.094528 -1.446838,-3.83046c-1.446014,-2.73513 -0.361481,-6.929367 0.542267,-4.558815c0.904572,2.370544 2.350586,2.735123 4.701965,4.376518c2.349792,1.640594 3.435913,2.918228 5.60495,3.100517c2.1698,0.18148 3.978088,0 4.339661,0.363754c0.361481,0.365395 0.722961,-0.181473 1.627533,0.182297c0.904633,0.365387 1.264465,-0.546051 1.626801,0.91143c0.361511,1.459106 2.350586,1.641403 3.254364,2.552841c0.90451,0.911438 0.90451,0.547668 3.25589,0.911438c2.351379,0.365372 5.606537,0.365372 5.606537,0.365372l3.434296,-0.18309l3.97818,0.36377c0,0 2.89447,1.641403 3.616638,1.641403c0.722961,0 0.903778,2.00679 2.712067,3.100494c1.808289,1.094543 2.16983,1.276016 3.254395,2.552841c1.086823,1.276825 0.90448,1.8237 2.350555,3.099701c1.447601,1.277634 3.798981,-0.181473 4.160461,-0.727524c0.359894,-0.547684 2.168243,-1.459122 1.80835,0c-0.362335,1.458298 1.806702,0.910629 1.264465,4.376511c-0.542236,3.46347 -0.904572,2.552032 0,4.923386c0.903778,2.37056 4.881897,9.664474 5.063446,11.852737c0.18161,2.188278 1.26532,1.459106 1.445984,3.465897c0.18161,2.005173 1.265289,2.734314 1.265289,4.19342s1.266907,1.822876 1.446869,2.918228c0.182343,1.094528 2.170624,0.181473 2.712921,0c0.54303,-0.18309 3.073547,-2.553635 3.073547,-2.553635s1.086914,-0.36377 0.904572,-2.188263c-0.181549,-1.822083 0,-1.458313 0,-4.193436s-1.084534,-2.735123 -0.542236,-5.469437c0.542236,-2.735123 1.988251,-4.377319 2.350525,-5.653336c0.361542,-1.276016 1.80835,-3.464279 2.530579,-3.647369c0.722992,-0.182297 4.701965,-2.187469 5.606537,-3.465088c0.903717,-1.276016 2.350586,-2.735123 3.797333,-4.19342c1.445984,-1.458313 3.977356,-3.281998 4.520416,-2.735138c0.542297,0.546875 0.361603,0.364578 1.266052,0.364578c0.903839,0 2.531372,0.729965 3.796631,0.912247c1.266083,0.182297 3.798187,3.281982 4.340485,4.923386c0.542236,1.641403 0.180756,1.276031 2.16983,3.647369c1.989105,2.369736 3.797363,0.910629 3.797363,3.828857s0,2.735123 0.904541,3.829651c0.903778,1.094543 1.988312,-2.005966 3.072845,-1.640579s1.265259,-0.364578 2.169006,2.552841c0.903748,2.918213 1.446045,2.918213 1.628357,5.835632c0.179932,2.917404 -0.181519,0.182281 -0.181519,2.552017c0,2.371353 -0.18158,2.553635 0.181519,4.741104c0.360779,2.189865 1.625183,2.919022 1.446045,3.2836c0,0 1.084534,-3.099701 0.72229,-5.288773c-0.359985,-2.187454 0,-5.287155 0.904419,-6.198593c0.90387,-0.913055 1.809204,-1.823669 2.531372,0.546875c0.723816,2.369736 1.085388,0.54686 2.712097,3.281982c1.628418,2.735931 3.074402,2.187439 3.255188,3.464264s1.086914,1.45993 2.350525,2.552841c1.266052,1.094543 2.350586,-0.181473 3.797363,-1.276001c1.447632,-1.094543 5.424255,-5.106491 5.606567,-6.747879c0.179932,-1.640594 1.807556,-1.276825 -1.086121,-5.469452c-2.893616,-4.194229 -2.893616,-5.653336 -5.967224,-8.206177c-3.072021,-2.552826 -4.881165,-2.735123 -2.529724,-6.017929c2.350586,-3.282776 3.435913,-5.470245 4.881897,-4.557983c1.446899,0.911438 3.976624,0.728348 3.976624,4.376511c0,3.646576 -0.723022,7.658508 1.808289,3.281998s3.798218,-6.929367 3.073608,-6.198593c-0.722229,0.729156 1.627502,-1.459106 1.627502,-1.459106s0.181641,-1.641388 3.255981,-2.370544c3.072815,-0.730774 3.976563,-1.094543 5.062683,-1.641403c1.084473,-0.547668 4.158936,-4.195038 4.701111,-5.835632c0.542297,-1.641403 1.989136,-4.558807 1.627625,-5.834824c-0.361511,-1.277626 -2.170715,-7.476212 -2.532104,-7.294739c-0.360779,0.183098 -0.179993,0.183098 -2.529785,-2.369743c-2.352173,-2.552834 -3.978943,-4.376511 -4.340393,-5.471046c-0.361511,-1.094543 -1.266113,-1.276825 -0.18158,-2.73513c1.086121,-1.458298 1.628357,-1.276009 1.809082,-2.552834c0.179993,-1.276009 1.625977,-2.370552 -1.086121,-1.458298c-2.711243,0.91143 -0.722961,0.365379 -3.073547,0.183098c-2.350586,-0.183098 -8.497803,1.276016 -5.423401,-2.552841c3.072815,-3.829651 3.975769,-6.199394 4.518799,-6.199394c0.543945,0 3.255981,-3.10051 3.435913,-0.183098c0.18158,2.917412 1.265259,2.187447 1.446899,4.011139s3.797302,-2.005165 3.797302,-2.005165s1.265259,0.364571 2.169128,1.276009c0.90448,0.911438 0.90448,3.829666 0.90448,3.829666s-0.723022,-0.912247 1.266052,0.54686c1.989868,1.459923 4.158081,0.729149 4.158081,3.829651c0,3.099701 0,3.282799 1.266113,4.011955c1.266846,0.729149 2.530579,0.365379 3.617432,-0.54686c1.084534,-0.911438 2.89209,-4.194237 2.89209,-4.194237s0.180664,-1.276825 -2.712097,-3.10051c-2.892883,-1.822876 -4.701172,-3.098885 -5.784912,-4.011139c-1.08606,-0.911438 -0.723816,-3.646561 0.359924,-4.741905c1.086853,-1.094536 1.627563,-1.641396 1.266052,-3.099693c-0.362305,-1.459923 0.543091,-2.55365 3.255127,-2.371361c2.712097,0.18309 3.254333,-0.18148 3.254333,-0.18148s0.543945,0.363762 0.543945,-0.729958c0,-1.093727 3.434204,-6.200211 2.529663,-6.200211c-0.903748,0 0.183167,-1.276009 -0.36145,-3.281982c-0.542297,-2.006783 1.808289,-5.105675 -0.179993,-6.564781c-1.989136,-1.459114 -2.532166,-2.189072 -3.797424,-4.376526c-1.265259,-2.189064 -1.08606,-2.552834 -5.786438,-3.100502c-4.701172,-0.546867 -6.870972,1.094536 -7.956299,-0.36377c-1.085327,-1.459106 -1.62677,2.187454 -2.349731,-2.189068c-0.723083,-4.376522 1.085205,-7.294746 1.085205,-7.294746s2.892883,-1.822872 3.61499,-3.099697c0.723083,-1.276821 3.615906,-1.823685 5.968872,-0.911438c2.350586,0.911438 5.784973,0.729153 8.679321,1.277634c2.892883,0.546055 2.712158,2.36974 4.158936,0c1.445984,-2.372169 0,-3.465084 1.084595,-4.741905c1.08606,-1.276825 2.350464,-3.282795 3.254272,-2.006783c0.903748,1.277634 2.714539,2.552834 4.161316,0.911438c1.446045,-1.640591 1.988281,-1.822876 1.988281,-1.822876l0.721436,0.729958c0,0 1.627563,-0.913055 1.627563,0.727531c0,1.642212 1.628357,3.465897 0.723816,4.741905c-0.905396,1.277637 -2.169006,1.094536 -2.169006,4.194233c0,3.101322 0,2.553646 1.987427,5.107292c1.989868,2.552025 3.255127,0.36377 3.616638,3.099701c0.362305,2.735126 0.722229,2.189068 2.712891,4.011944c1.989075,1.822876 1.625977,1.822876 3.073608,2.917412c1.446838,1.094536 2.170593,2.189072 2.170593,0.365387s0.180725,-2.735123 0,-4.376526c-0.182373,-1.640587 1.446899,-2.918217 0.359924,-5.653339c-1.084473,-2.735123 -0.179932,-2.552837 -2.349792,-4.558807c-2.170654,-2.005169 -3.617371,0.365383 -4.338867,-2.552841c-0.723816,-2.917408 3.434326,-4.194229 4.520447,-4.558807c1.084534,-0.363762 2.710449,-2.552837 3.07196,-1.093723c0.362305,1.458302 -2.711304,6.74707 2.532959,1.093723c5.242615,-5.652531 2.892822,-3.281982 2.892822,-3.281982s2.712158,-0.364578 3.254333,0c0.541504,0.365383 1.990662,-1.641399 1.446045,-1.458302c-0.542297,0.183098 -5.784058,-2.918221 -5.784058,-2.918221l-3.799011,-2.18745c0,0 1.266785,-0.912251 2.170654,-0.729149c0.90448,0.182285 1.08606,-1.823689 1.990662,-2.006786c0.903748,-0.182289 7.050903,1.277634 8.31781,2.006786c1.265259,0.729149 5.78479,0.911438 5.24176,0.54686c-0.542236,-0.365383 -3.434265,-2.552834 -3.615784,-3.282795c-0.179993,-0.729149 -6.509521,-2.188263 -8.497803,-2.005974c-1.989929,0.181477 -3.79657,0.72834 -5.424194,0.181477c-1.628296,-0.546862 -3.978088,-2.005974 -5.244141,-2.005974c-1.265259,0 -17.177063,-3.099695 -17.900146,-2.917408s-1.809143,3.646559 -2.351379,3.099697c-0.542236,-0.546862 -1.445984,-0.54767 -3.978943,-1.276823c-2.529724,-0.729151 -5.966431,-1.276823 -10.487671,-1.640589c-4.519531,-0.364573 -7.592346,0.364576 -8.858398,-1.094534c-1.266052,-1.458302 -3.977356,-0.911438 -7.051758,-1.094536c-3.073608,-0.181477 -6.690247,0 -8.31781,0s-5.423401,-0.181477 -6.327942,-0.364574s-1.989075,-1.459112 -3.073608,-1.640589c-1.086121,-0.183096 -0.905334,-0.546864 -3.074341,-0.911436c-2.169861,-0.365387 -1.989136,-2.735125 -2.712097,-0.729961c-0.722961,2.006784 -0.362366,1.45911 -1.446838,2.188261c-1.085327,0.729959 -2.169861,2.188261 -2.893677,2.188261c-0.722229,0 -3.61499,0.182287 -4.158875,-0.182289c-0.54303,-0.364574 -1.446899,-0.729149 -3.255188,-0.729149s-1.808289,0.181477 -4.158875,-0.183098s-4.158875,-0.183098 -6.328766,-1.276014c-2.1698,-1.094534 -2.1698,-1.823685 -3.978119,-1.641397c-1.806732,0.183098 -1.806732,-0.364574 -4.339691,-0.364574c-2.530518,0 -5.604095,1.45911 -7.232483,1.641397c-1.625946,0.182287 -5.242645,-0.183096 -6.508667,-0.729959c-1.266815,-0.546864 -1.627594,-1.822876 -6.329529,-1.276823c-4.701172,0.547672 -7.413239,0.547672 -6.509521,-0.911438c0.904541,-1.4583 1.989075,-2.917412 2.531372,-3.099699c0.54303,-0.182287 1.807495,-1.093724 0.902985,-1.4583c-0.902985,-0.365385 -1.807556,-0.911438 -3.976593,-1.094535c-2.170624,-0.182288 -1.990692,0.72915 -5.244202,0.364573c-3.254333,-0.364573 1.808319,-1.276011 -4.881104,-1.093723c-6.690308,0.183097 -8.31778,0.72915 -9.040802,0.72915c-0.723846,0 -1.628418,-1.458301 -3.435913,0.72915c-1.80835,2.188261 -4.341248,3.464273 -7.956299,3.646561c-3.615845,0.183098 -3.797394,-0.364574 -7.23175,0.911438c-3.435852,1.276012 -5.606537,-0.364574 -4.88266,2.552835c0.722168,2.91741 1.627502,4.011946 1.627502,4.558807s-1.627502,4.194237 -3.615784,2.005976c-1.990753,-2.188261 -5.606537,-10.759016 -3.978973,-4.923386c1.62674,5.834824 5.242645,7.841604 1.808319,8.753042c-3.435089,0.911438 -3.075195,-0.364574 -3.617432,-0.729959c-0.541473,-0.364574 0,-2.917412 -0.180786,-4.37652c-0.181549,-1.4583 -0.542236,-2.37055 -1.265259,-3.099699c-0.722198,-0.729961 -0.54303,-1.823687 -1.989075,-2.188261c-1.446777,-0.364576 -0.180725,-1.094536 -2.531342,-1.094536c-2.350555,0 -4.338837,-1.45911 -3.796539,1.823687c0.541412,3.281986 1.083679,1.094534 2.529694,4.194233s4.158905,0.911438 2.170593,3.099699c-1.989044,2.188259 -7.232452,1.459108 -8.498505,0.54767c-1.266113,-0.912247 -0.903778,0.364576 -3.255981,-1.276823c-2.350555,-1.641396 -1.625977,-2.918219 -4.338043,-1.641396c-2.712097,1.276823 -3.616638,3.647371 -4.701965,2.735123s-3.615845,1.276014 -4.520416,0.183096c-0.904572,-1.094532 -4.52121,-1.094532 -5.243408,0c-0.723816,1.093727 -2.893646,0.911438 -5.967224,2.37055c-3.073608,1.458302 -2.170654,0.181477 -5.967255,3.281986c-3.798187,3.099697 -5.968048,5.652534 -7.232483,3.646561c-1.266052,-2.005161 -8.137848,-5.470245 -5.424957,-6.017918c2.71286,-0.546867 3.978119,-1.640591 5.424957,-0.364574s3.798218,0.912247 4.158112,0c0.361511,-0.912251 1.989838,-1.823687 -0.180786,-2.917414c-2.1698,-1.094534 -2.350555,-0.365385 -5.785645,-1.641399c-3.435913,-1.276823 0,-0.911438 -4.701996,-1.641396c-4.701172,-0.729151 -6.69101,-1.093727 -7.956299,-1.458303c-1.264404,-0.364573 -3.073578,0 -4.881104,-0.182285c-1.809143,-0.182287 -3.073578,-0.546862 -4.701965,-0.364574c-1.62677,0.182287 -2.530487,-0.182287 -4.701111,1.45911c-2.170685,1.641397 -3.798248,2.370548 -5.244263,3.646561c-1.446014,1.276014 -5.242615,3.829659 -6.327942,4.741909c-1.085327,0.911438 -4.88269,3.828846 -5.244202,4.923382s0.361511,2.005974 -1.085327,2.735123c-1.446838,0.729149 -2.892822,0.729149 -3.97818,0.911438c-1.085297,0.182285 0,-1.641399 -1.085297,0.182285c-1.084503,1.823685 -0.722961,8.388474 0.180786,7.476223s0.361481,-3.82885 4.3396,-1.092915c3.978149,2.73431 6.510315,2.369736 6.328766,4.922573c-0.180725,2.552837 2.712067,2.370548 3.073547,2.918217c0.361572,0.546059 2.169861,-0.729961 2.169861,-0.729961s3.978149,-2.552834 3.978149,-3.828846c0,-1.276817 2.531342,-4.194233 2.531342,-4.194233s-1.809113,-0.911434 -1.809113,-2.735123c0,-1.822872 0.543854,-2.371357 0.904541,-4.195042c0.361511,-1.822876 -1.989075,0.000809 3.435913,-3.465084c5.42334,-3.464275 5.785706,-1.092915 5.785706,-1.092915s0.722168,0.729149 -0.18158,1.822876c-0.903748,1.094532 -2.531372,4.012753 -2.892883,4.376518c-0.362274,0.365387 1.627594,3.282795 2.530579,3.282795c0.904541,0 2.712891,-0.729961 3.798187,-0.547672c1.085327,0.183098 2.892853,-0.546051 3.435089,-0.181477c0.54306,0.364574 1.808319,1.458302 0.903778,2.370548c-0.903778,0.911438 -2.893677,2.005161 -4.338867,1.641399c-1.447601,-0.363766 -3.617462,-2.918221 -2.351379,0.729149c1.266083,3.647373 -0.180756,4.558811 -1.266083,4.376526c-1.08371,-0.182293 -3.435089,-2.005169 -3.073578,0.729954c0.362274,2.734314 -2.349762,4.557999 -2.892853,4.557999s-1.62677,-0.182289 -1.62677,-0.182289s-1.628326,-0.183094 -2.531342,-0.183094c-0.904541,0 -2.71286,0.911438 -3.255127,1.641399c-0.54306,0.729149 -1.266052,0.183094 -2.16983,0.183094s0,-1.094532 -1.808289,-1.45911c-1.807556,-0.364574 -2.892883,-0.729145 -3.977356,0c-1.085327,0.729149 -2.712097,1.093731 -3.435913,0.546864c-0.722992,-0.546864 0.362305,-1.824493 -1.085297,-1.093723c-1.446045,0.729153 -2.531342,2.735123 -3.073639,2.918217c-0.542206,0.181477 1.627594,0 -0.542206,0.181477c-2.169891,0.183105 -3.073608,0.730774 -4.158905,1.094543c-1.085358,0.365379 0.361481,2.552834 -1.627594,3.281982c-1.989105,0.729149 -0.541473,-0.911438 -2.531311,0.729149c-1.989136,1.642212 -2.35141,3.10051 -3.073578,3.282799c-0.723846,0.183098 -0.542297,0.54686 -2.169861,0.729149c-1.627594,0.182289 -1.446014,0.364571 -2.351379,0.54686c-0.903778,0.182289 0.181549,0.547676 -1.807556,0.182289c-1.989838,-0.364578 -3.435883,0.365387 -3.074402,1.094536c0.361542,0.729156 7.051758,2.735123 1.989105,2.552841c-5.062683,-0.182297 -3.435089,0.729141 -2.350586,1.45829c1.085327,0.729156 1.62677,1.458305 2.169861,1.641403c0.54303,0.182289 1.445984,2.371361 1.445984,2.371361s1.446808,-0.183098 0.54306,1.093719c-0.903748,1.276825 0.361511,1.641403 -0.54306,3.282799c-0.903778,1.641403 -0.903778,0.54686 -1.62677,0.911438c-0.722992,0.363762 -1.808319,1.641403 -3.798187,0.54686c-1.989075,-1.094536 -3.434265,-1.641396 -5.785675,-1.822876c-2.350586,-0.183098 -0.723816,-0.54686 -2.350586,0.72834c-1.627563,1.277641 -1.989075,2.735931 -1.807526,4.376526c0.180756,1.640587 0.361481,3.829659 -0.181549,4.924194c-0.542236,1.093727 -0.542236,2.188255 -0.181549,3.829659c0.362305,1.640587 1.447632,2.371361 1.447632,2.371361s2.531281,0.363762 3.073578,0.54686c0.542267,0.182281 1.627563,-0.364578 3.073578,0.546051c1.446808,0.912239 2.893677,1.277634 3.797455,0.183098c0.903717,-1.093727 4.520355,-2.370552 5.606476,-3.464272c1.084503,-1.094536 1.807495,-1.458298 1.265259,-2.552841c-0.542236,-1.094536 1.085358,-3.829659 1.989105,-4.376518c0.903748,-0.54686 2.892822,-1.094536 2.892822,-1.094536l2.16983,-3.28199c0,0 1.808319,-2.006783 2.712067,-1.823685c0.903748,0.182297 5.966431,2.00679 5.605743,-0.363762c-0.361481,-2.371361 0.361511,-3.100502 0.903748,-2.189064c0.542267,0.911438 1.989075,0.54686 1.989075,0.54686s0.723022,-0.36377 1.26532,0.18309c0.542206,0.546059 1.265198,2.918228 2.350525,3.464279c1.085297,0.547676 1.989075,1.094536 2.712891,1.458298c0.722992,0.365387 1.446808,0 2.893677,1.276825c1.445984,1.276825 2.892792,2.006783 3.072754,2.552834c0.182404,0.546867 1.447632,1.823685 1.447632,1.823685s1.265259,0.364578 0.903778,1.094543c-0.361481,0.729141 -2.169006,2.918213 -3.073578,3.281982c-0.904602,0.364578 -3.254364,-0.365387 -2.350586,0.364578c0.902954,0.729141 2.1698,1.641396 2.712067,1.093719c0.543091,-0.54686 3.977356,-4.194237 3.977356,-4.194237s-0.180756,0.182289 0,-0.912247c0.181519,-1.092911 0,-2.369736 0.904541,-1.822876c0.903778,0.547676 1.446838,1.276833 1.808319,0.547676c0.361542,-0.729958 0.723022,-0.364578 -0.181549,-0.911438c-0.904541,-0.547676 -3.073608,-3.647369 -4.158875,-3.829659c-1.085327,-0.183098 -3.798218,-2.006783 -3.798218,-2.006783s-0.541473,-0.546867 -1.807526,-2.005165c-1.266052,-1.459106 -1.626801,-1.094528 -1.989899,-2.371361c-0.360687,-1.276009 -1.446808,-2.917404 0.54306,-2.552834c1.989929,0.364578 3.254364,1.640587 5.062653,2.735123c1.80838,1.094543 1.447632,1.458305 3.074432,2.552834c1.62674,1.094536 1.809113,2.189079 3.073608,2.006783c1.265259,-0.182281 2.71283,0.729156 2.71283,2.370552s0.360748,3.464272 0.72226,3.829666c0.362305,0.365379 1.445984,1.094528 1.808289,1.823685c0.361511,0.729141 1.085327,2.552826 1.62677,3.281982c0.543091,0.729149 1.085297,1.276825 1.627594,2.189072c0.542236,0.91143 0.722992,-0.183098 1.265228,0.182281c0.543091,0.364578 1.266083,0.18148 1.266083,-0.547668c0,-0.729149 0.179962,-2.005974 0.179962,-2.005974s2.532928,-0.729149 1.809937,-1.094536c-0.723816,-0.364578 -2.89447,-2.552834 -2.712891,-3.28199c0.180756,-0.729149 0,-2.187447 0.902954,-2.005157c0.904572,0.181473 1.809082,1.822876 3.798187,0.363762s4.339691,-2.188255 3.615875,0c-0.722198,2.188263 0.182343,2.552025 0,4.923386c-0.179932,2.371361 0.724609,1.641403 1.990662,2.918221c1.265259,1.276825 2.169037,1.459923 3.072784,1.823692c0.904572,0.365372 2.350616,0.183098 3.798248,0.365372c1.446777,0.182297 2.350586,-0.547668 3.616608,-0.182274c1.264465,0.364571 4.158112,-0.183098 4.701141,0.182274c0.543091,0.364586 2.712921,-0.729141 2.892883,0.546867c0.180725,1.276825 0.904541,-0.182281 0.362305,2.73513s-1.266052,4.923378 -1.266052,4.923378c-1.989136,3.829666 -2.712097,4.741905 -3.616699,4.924202c-0.902924,0.182274 -1.446014,0.729141 -3.072754,0.54686c-1.627594,-0.183105 -3.616669,0 -5.967255,-0.54686c-2.350586,-0.547684 -6.69104,0.54686 -8.498566,-0.547684c-1.808319,-1.093719 -4.339661,-0.182281 -5.425781,-1.45829c-1.084503,-1.276825 -2.891998,-1.094543 -3.615814,-1.823692c-0.723022,-0.729149 -1.084534,-2.734314 -1.084534,0.183098c0,2.918221 -1.627563,3.099701 -1.989075,4.558807c-0.362305,1.458298 0.541473,0.729156 -1.447601,0.546867c-1.989075,-0.183098 -2.531372,0.91143 -5.424164,-1.276016c-2.893677,-2.188263 -4.339691,-2.188263 -5.785675,-3.100502c-1.447662,-0.912254 -2.893646,1.640579 -4.339691,-1.276024c-1.446838,-2.918213 -3.435913,-0.547668 -3.616638,-2.918213c-0.180756,-2.371361 0,-2.187447 0.180725,-3.646568c0.182373,-1.459106 2.169891,-2.735115 1.266113,-3.281982c-0.904572,-0.54686 -0.18158,-1.459106 -1.446838,-0.911438c-1.266083,0.54686 -3.073578,0.729156 -4.520386,1.276016c-1.446869,0.547668 3.254303,0 -3.797455,0.547668c-7.051727,0.54686 -9.041595,1.276024 -9.041595,1.276024s-0.542267,-0.364586 -1.446838,0.364571c-0.903748,0.729141 -2.16983,1.823677 -3.435059,1.276825c-1.265259,-0.547684 -1.989105,-0.365387 -3.073608,-0.182289c-1.085297,0.182289 -1.807495,-0.911438 -3.073578,0c-1.266113,0.910622 -2.712097,1.276009 -3.255127,0.910622c-0.543854,-0.369446 -1.448456,-1.827736 -1.448456,-1.827736z" fill="#ff7f00"/>
   <path d="m407.506378,226.424622c-0.542236,2.006775 -2.531311,4.923386 -2.531311,4.923386l-3.617462,1.823685c0,0 -1.263672,1.094528 -1.988281,1.27681c-0.722992,0.181488 -2.531342,1.094543 -2.531342,1.094543s-1.62674,-0.365387 -1.085327,1.275208c0.542267,1.641403 0.723816,3.648178 0.542267,4.194214c-0.179932,0.547699 -0.179932,1.642212 -0.179932,3.101318c0,1.458328 -0.542267,3.281189 -1.446808,3.645752c-0.903778,0.365402 -1.80835,0.729965 -1.627594,2.006805c0.181549,1.27681 0.181549,5.105667 0.181549,5.105667l2.35141,3.647369c0,0 0.722961,-0.546875 2.1698,-0.546875c1.445221,0 2.892853,-1.275177 2.892853,-1.275177s1.628357,0.362946 1.445984,-1.641418c-0.180725,-2.006775 0.72464,-4.376526 0.542267,-4.924194c-0.179962,-0.546844 1.628387,-2.918213 1.628387,-3.464264c0,-0.547668 1.808319,-3.098877 1.808319,-4.011948c0,-0.911438 1.265289,-2.370544 1.446014,-3.463455c0.180756,-1.095367 0.361511,-3.647385 0.723022,-4.376526c0.362305,-0.729156 0.54306,-1.459106 0.54306,-2.188263s0,-2.188278 0,-2.188278l-1.266876,-4.014359z" fill="#ff7f00"/>
   <path d="m549.086731,251.043152c-0.542297,0.728363 -0.903809,8.57077 -1.265259,9.482208s-1.085327,5.653351 -0.722168,6.746246c0.360596,1.095337 0.902893,5.106506 0.542175,6.383301c-0.362244,1.276031 0.180786,5.287964 -0.724548,5.105682c-0.902954,-0.183105 -1.263672,0.183075 -1.263672,0.729156c0,0.547668 1.263672,1.640564 1.263672,1.640564s2.171387,0.000824 3.075195,-0.182251c0.903748,-0.182312 2.712036,-1.094543 4.158875,-1.094543s2.351379,-1.094574 3.615845,-1.094574c1.266052,0 3.978943,-0.910614 4.701965,-0.546844c0.722961,0.36377 1.807495,-2.188232 3.073547,-1.640564c1.266113,0.546844 3.979004,-1.276855 5.244263,-1.276855c1.264465,0 1.808289,-2.006775 3.255127,-1.640594c1.446045,0.364594 4.158936,-0.729126 5.425049,-0.183899c1.263611,0.548492 3.254272,-1.822876 4.15802,0c0.904602,1.824493 3.617493,2.55368 3.617493,3.465118s-0.183167,2.918213 -0.183167,2.918213l2.170715,-0.183136c0,0 3.434143,-2.188232 3.978088,-2.188232c0.542175,0 1.808289,-1.822876 1.808289,-0.910614c0,0.910614 -1.086182,2.918213 -1.446777,3.828827c-0.361511,0.912262 0.360596,2.006805 0.360596,2.006805s1.809998,0.911438 1.086182,2.552002c-0.723816,1.641418 0.179993,1.277649 0,2.552856c-0.181519,1.276794 0,0.729126 0.721375,1.458282c0.72467,0.72995 1.991577,2.008392 3.075195,1.824493c1.08606,-0.183105 1.446045,-1.276001 2.350647,-0.729126c0.903748,0.546844 2.711243,0.182251 3.25354,0.912231c0.544617,0.728333 -3.434387,2.552032 3.436646,-0.546875c6.871033,-3.101318 7.592407,-3.830444 8.496948,-4.925018c0.906982,-1.093719 1.991516,-2.187408 2.712891,-2.917389c0.723816,-0.729126 0.182373,-0.546875 2.350586,-2.188263c2.169922,-1.640594 2.169922,-0.911438 4.160522,-4.011963c1.989075,-3.098846 3.434265,-4.19342 3.797363,-4.741089c0.361572,-0.547668 1.084534,-0.729126 1.265259,-2.919006c0.180847,-2.187469 1.626831,-4.19342 1.626831,-4.922607c0,-0.728333 0.542236,-1.822052 0.361572,-3.09967c-0.180908,-1.276825 0.723755,-3.098907 -0.361572,-4.922577c-1.085327,-1.824509 0.542236,-2.552048 -1.085327,-3.283615c-1.627563,-0.729141 -2.712097,-0.36377 -3.073547,-1.640579c-0.362366,-1.27684 -1.809204,-1.094543 -2.35144,-4.558823s-2.712036,-3.83046 -2.712036,-3.83046s-2.169861,-0.911438 -1.627625,-1.275208c0.543884,-0.365372 0.723877,-2.919037 0.543884,-3.648178c-0.181519,-0.729141 -0.181519,-2.370544 -0.723022,-3.463455c-0.542236,-1.095367 -0.904541,-2.552841 -1.446777,-3.83046c-0.542297,-1.276031 -1.446045,-1.641403 -1.80835,-3.099716s-0.904541,-2.006775 -1.084473,-2.370544c-0.182373,-0.364563 -0.544739,-2.187439 -0.904602,-0.18309c-0.36145,2.005966 -1.086121,5.834824 -1.086121,5.834824s-1.446777,3.101318 -1.989075,4.012756c-0.542236,0.910614 -1.084534,3.281982 -1.988281,3.098877c-0.904541,-0.182297 -1.448425,0.913071 -2.1698,0.729141c-0.723816,-0.18309 -1.80835,0.183105 -2.350647,-0.363739c-0.542236,-0.547699 -1.989075,-2.005997 -2.71283,-2.189102c-0.723022,-0.181473 -1.265259,-1.639755 -1.80835,-1.639755c-0.543884,0 -1.446838,-1.277634 -1.265259,-2.006775c0.179932,-0.729172 0.360718,-2.369766 0.542236,-3.099716c0.179932,-0.729156 1.266113,-2.371368 1.266113,-2.371368s0,-1.093704 -0.904602,-1.093704c-0.903748,0 -1.085327,0 -3.074341,-0.183105c-1.988342,-0.183105 -2.529785,-0.364578 -3.255127,-0.364578c-0.721436,0 0.724548,-0.364563 -1.265381,0.182281c-1.98822,0.548492 -2.892761,2.006805 -4.158813,3.283615c-1.263672,1.276031 -0.179993,0.910629 -1.263672,1.276031c-1.086975,0.365372 -0.904541,-0.912262 -1.628357,1.094513c-0.723816,2.005981 0.362244,2.552017 -0.182434,2.917419c-0.542236,0.365387 -4.338013,-1.276016 -4.338013,-1.276016s0.903748,-0.183105 0.179932,-1.094543c-0.722168,-0.912231 -1.446045,-2.187439 -2.529724,-1.640594c-1.086914,0.54689 -1.991455,0.912262 -2.71283,1.8237c-0.723816,0.911438 -0.723816,1.640579 -1.266052,2.36972c-0.542297,0.729172 -1.988342,0.729172 -2.169922,1.459137c-0.180725,0.729965 -0.180725,2.552841 -0.722168,2.735107c-0.542297,0.183105 -0.722961,-0.727524 -1.265259,-0.910629c-0.542297,-0.182281 -0.362366,-1.641388 -0.723022,-0.729141c-0.361511,0.911438 -0.723022,0.728333 -1.265259,2.187454c-0.543823,1.459106 -0.723816,2.735931 -1.266052,2.918213c-0.542236,0.18309 0,0.364563 -1.628418,1.276825c-1.625977,0.911438 -1.98822,0.911438 -4.338013,2.005981c-2.349792,1.094513 -1.807556,1.094513 -3.43512,1.276001c-1.62677,0.183105 -1.989868,0.72995 -3.074341,0.912247c-1.086182,0.182297 -1.807556,0.36377 -2.893677,1.458313c-1.084534,1.094528 -1.98822,1.458298 -2.711243,1.641403s-1.450073,0.91304 -1.450073,0.91304z" fill="#ff7f00"/>
   <path d="m559.754333,179.012833c-0.722229,1.095352 -3.072815,4.376526 -3.976624,4.559616c-0.90448,0.181488 -1.809082,1.094543 -2.532043,0.911438s-2.350586,0 -2.892883,2.37056s-1.446838,3.647369 -1.990662,3.464264c-0.542297,-0.182281 0.903748,3.464279 -2.169067,2.006775c-3.072754,-1.459106 -1.988281,1.27684 -2.350525,2.00679c-0.361572,0.728348 0.542236,2.735138 0.723022,3.464279c0.182373,0.729141 0.722961,2.005966 1.446777,3.098892c0.723022,1.094528 1.265259,2.370544 2.531311,2.007584c1.266052,-0.366196 5.242615,0 5.242615,0s1.448425,0.54686 2.351379,0.54686c0.903809,0 1.085327,-0.364563 1.62677,-0.364563s1.62677,-1.824493 1.446777,-2.005981c-0.180725,-0.183899 -0.722107,-0.72995 0.361572,-1.824493c1.085327,-1.094528 2.350586,-1.458298 2.532166,-2.735123c0.180725,-1.276016 -0.361511,-1.276016 0.180725,-2.006775c0.542236,-0.729156 1.807556,-0.545242 1.446777,-1.276031c-0.362305,-0.729141 0.360779,-0.546844 -0.362305,-2.006775c-0.722168,-1.458298 -1.627563,-2.005966 -0.904541,-3.829651c0.723816,-1.822876 1.448425,-2.188263 1.266846,-3.281982c-0.181519,-1.095352 0.90387,-1.459122 -0.362305,-2.735931c-1.264404,-1.275208 -1.807495,-1.640594 -2.712036,-2.00679c-0.903748,-0.362961 -0.903748,-0.362961 -0.903748,-0.362961z" fill="#ff7f00"/>
   <path d="m595.194641,197.248886c0.724548,-0.182281 3.255127,-2.005966 3.436646,1.276825c0.180786,3.281982 0.359924,2.369736 1.446838,4.19342c1.084534,1.823685 1.805908,2.372177 3.07196,1.459915c1.265259,-0.913055 2.712097,-0.913055 3.073608,-2.552826c0.362305,-1.641403 0.362305,-1.641403 1.446838,-1.641403c1.086914,0 1.446838,-0.182281 1.991516,0.548477c0.541382,0.727539 0.901306,-0.001617 3.25354,1.275208c2.350464,1.27684 4.338806,0.910629 5.787292,2.188278c1.446777,1.276001 2.169739,1.095337 4.158081,1.823669c1.989075,0.729156 1.084412,-0.364578 2.892761,1.641403c1.809143,2.005173 1.086914,2.552017 1.989075,3.464279c0.903809,0.911423 1.628418,-0.729965 1.266052,1.458282s-2.892761,0 0.904602,3.098892c3.796631,3.101334 4.3396,3.649002 5.604187,4.559616c1.266846,0.912262 2.170532,2.006805 1.086853,2.006805c-1.086853,0 -4.521179,0 -4.881897,-0.547668c-0.362305,-0.546875 -1.989075,-0.912262 -3.075134,-2.188278c-1.08374,-1.275208 -3.434387,-2.188248 -3.975769,-3.281982c-0.543945,-1.095367 -1.266907,-1.459137 -2.170654,-1.459137s-1.807556,1.093735 -3.074402,2.370575c-1.266052,1.276016 -0.721375,-0.728333 -2.350586,-0.182297c-1.628357,0.547668 -3.434326,-0.183075 -4.339661,-0.912247c-0.904541,-0.729156 -0.722168,-1.822876 -2.168213,-1.276031c-1.448425,0.546875 -2.350647,0.182297 -1.80835,-0.911438c0.542236,-1.095337 0.179993,-2.553619 0.179993,-2.553619s0.543762,-1.8237 -0.721497,-2.187469c-1.266052,-0.36377 -1.266052,-1.640579 -2.532104,-2.006775c-1.266846,-0.36377 -3.254272,-1.276016 -3.254272,-1.276016s-0.180786,0 -0.723816,-0.182281c-0.542297,-0.18309 -0.542297,-0.18309 -1.989136,-0.54686c-1.445984,-0.365387 -2.532104,-0.001617 -3.254272,-0.912262c-0.724609,-0.911438 -0.362366,-2.188248 -0.362366,-2.188248s2.892883,0.364578 0,-1.823685c-2.892822,-2.187454 -2.892822,-2.187454 -2.892822,-2.187454s0.359924,-0.18309 0.179932,-0.547668c-0.182373,-0.366196 1.805176,0 1.805176,0z" fill="#ff7f00"/>
   <path d="m513.827209,182.112534c0,0 0.903748,0.913055 2.350647,0.729965c1.445984,-0.18309 2.529663,2.917404 3.435852,4.011139c0.903015,1.094528 1.446777,1.641403 3.43512,2.918228c1.98822,1.276016 1.807495,-1.094543 4.520386,2.735123c2.712036,3.828842 1.445984,1.459106 2.712036,3.828842c1.265259,2.372971 1.989075,3.648178 2.712036,4.196671c0.72229,0.54686 1.266113,2.004349 1.447693,2.552017c0.179932,0.54686 1.445251,2.187454 1.445251,2.735123c0,0.54686 0.362366,2.005981 -0.722229,3.281982c-1.085327,1.276825 -1.989868,1.459122 -1.989868,1.459122s-2.1698,-1.094543 -2.892883,-2.188278c-0.723816,-1.093719 -1.62677,-2.005966 -2.893555,-4.19342c-1.26532,-2.189056 -2.712158,-4.559601 -3.435181,-5.653336c-0.722961,-1.095352 -1.80835,-2.18988 -2.350586,-3.282791c-0.542236,-1.095337 -1.989075,-4.376526 -2.712036,-4.741913s-0.904602,-1.458298 -2.170654,-2.735123c-1.264465,-1.276825 -1.084534,-2.370544 -1.626709,-3.099686c-0.542297,-0.729172 -1.807556,-2.372177 -1.807556,-2.372177l0.542236,-0.181488z" fill="#ff7f00"/>
   <path d="m162.135773,324.350311c-1.266068,-0.729156 -3.978165,-2.005981 -4.881912,-2.735138c-0.903763,-0.729156 -3.61586,-4.742737 -3.61586,-4.742737l-1.989868,-3.829651c0,0 -2.349777,-2.917389 -1.807526,-4.011108c0.542267,-1.094543 1.627563,-1.8237 1.627563,-2.370544s1.084518,-2.006805 0.179962,-2.552856c-0.903778,-0.547668 -0.903778,-0.729156 -1.446838,-2.370544c-0.542236,-1.640594 -0.542236,-3.101318 -1.265259,-3.465088c-0.723816,-0.36377 -1.266068,-2.735107 -1.989075,-2.917419c-0.723007,-0.183075 -1.446823,-1.459106 -1.446823,-1.459106l-1.085297,-14.770935c0,0 -0.36232,-6.746277 -0.723022,-8.206177c-0.362305,-1.458313 0.542252,-4.558014 -0.362305,-7.293976c-0.903778,-2.735077 0.181564,-6.01709 -0.361511,-7.111603c-0.542267,-1.094559 0.361511,-4.193436 -0.18074,-7.110855s2.1698,-6.564774 0,-7.658508c-2.16983,-1.095337 -0.542267,-2.735947 -2.350601,-2.735947c-1.807526,0 -3.073578,-0.912231 -4.701157,-2.187439c-1.627563,-1.27684 -4.701965,-3.648178 -5.605728,-4.560425c-0.903748,-0.910614 -3.797394,-3.281982 -4.701149,-4.011154c-0.903763,-0.729141 -1.808327,-3.829651 -2.531342,-4.741898c-0.723007,-0.910629 -1.084511,-3.645752 -2.169823,-5.287155c-1.08532,-1.640579 -2.531342,-4.375717 -2.893654,-4.923386c-0.361496,-0.546844 -4.339653,-5.287964 -4.339653,-5.287964l0.361511,-2.917389c0,0 2.71209,-1.641403 2.350586,-2.188263c-0.361519,-0.547668 0.181557,-1.095352 -1.085335,-2.188263c-1.266045,-1.095337 -1.085304,-3.101318 0,-4.011948c1.085335,-0.913055 2.712097,-3.83046 2.712097,-3.83046l2.712082,-4.558014c0,0 2.170631,-2.372162 2.170631,-4.012756s3.073593,-2.734314 1.265266,-4.19342c-1.808327,-1.459915 -0.903763,-2.735931 -1.446808,-3.83046c-0.543076,-1.093735 -0.180756,-1.822876 1.446808,-2.917419s4.520424,-5.105667 4.520424,-5.105667s2.16983,-0.547668 2.712082,-0.547668s1.446823,-5.836456 3.074387,-2.00679c1.627579,3.829666 2.169846,1.823685 1.627579,4.558807c-0.543076,2.735138 0.723007,2.189072 1.446014,1.45993c0.723007,-0.730789 -0.362305,0.54686 1.084503,-2.736755c1.446014,-3.281982 0.904587,-4.375717 1.80835,-3.463455c0.903763,0.912247 1.265244,1.094528 2.892822,1.641403c1.626755,0.54686 2.16983,0.363754 2.711288,1.458298c0.542252,1.094528 0.362305,-0.364578 3.435883,0.18309c3.073608,0.547668 7.413239,-1.094528 6.871002,0.728348c-0.542267,1.823685 -1.627594,-0.182297 0.903748,1.823685c2.531357,2.006775 2.893646,2.370544 4.339661,2.735931c1.44603,0.364563 2.712097,0.182281 4.882721,2.370544c2.169846,2.187454 2.712082,2.370544 3.254349,3.46347c0.542252,1.095337 1.446014,0.365387 2.350586,1.459106c0.903763,1.095337 2.169815,1.095337 3.435089,1.095337c1.265274,0 0,-1.095337 1.989075,0.364578c1.989883,1.458298 3.435883,1.639786 4.339645,4.557999c0.903763,2.919846 2.712097,2.735947 1.265274,5.65416c-1.44603,2.918213 -4.338852,4.194229 -3.073578,4.011948c1.265244,-0.18309 3.616638,-1.277649 4.339645,-1.094528c0.723022,0.181473 1.084518,-0.546875 2.16983,0s1.266068,-0.729156 1.085312,0.546844c-0.181549,1.276825 -0.181549,0 -0.181549,1.276825c0,1.276016 -0.361511,-1.276825 1.808319,-0.729141c2.16983,0.54686 0.903763,-1.095352 3.435089,1.276016c2.532135,2.371353 2.532135,1.642197 3.435104,2.918213c0.904556,1.275208 1.808334,-0.728333 2.351379,-0.182281s2.16983,0.181473 3.797409,0.54686c1.627579,0.363754 0.542252,-1.093735 3.074387,0.54686c2.530533,1.640594 5.062668,1.093719 5.604935,2.552841c0.542236,1.458298 1.989868,0.911438 2.712067,1.823685s1.084518,-0.365387 1.808319,0.912231c0.723038,1.275208 2.893661,0.910645 2.531326,2.186646c-0.362289,1.277634 0.541458,0.547668 0.179947,2.370544c-0.360687,1.825333 -1.627548,4.742722 -2.711273,5.471085c-1.085312,0.72995 -1.084488,1.641388 -1.808319,2.552826c-0.723007,0.913055 -0.542252,-0.911438 -1.446808,1.641403c-0.903763,2.553635 -0.723022,2.918213 -1.44603,5.287933s-0.18074,0 -0.723007,2.370544c-0.542267,2.370575 -0.18074,3.829681 -0.723007,6.565598c-0.542236,2.734314 -0.361496,2.735138 -0.723007,4.741119c-0.361496,2.005951 0.903748,-0.910645 -0.723816,3.281982c-1.626755,4.195053 -1.80751,4.011124 -2.349777,5.835632c-0.54306,1.824478 0.180771,0.364563 -1.808304,1.459106c-1.98909,1.095337 -0.903763,0.729141 -3.255157,1.459106c-2.349777,0.729141 -5.243423,1.459915 -6.147186,1.641403s-4.520416,1.276016 -3.435089,3.46344c1.085312,2.189087 1.085312,2.55365 0,5.289581c-1.085327,2.734314 -2.712082,3.6474 -2.712082,4.922607c0,1.27597 -0.723816,2.552002 -0.903763,3.464264c-0.181549,0.912262 1.62677,-0.912262 -0.542267,1.8237c-2.169815,2.735077 -2.350571,2.005951 -3.074371,3.647339c-0.723022,1.640594 0,0.36377 -0.723022,1.640594c-0.723007,1.276031 -2.531342,1.822876 -2.531342,1.822876s0.179962,0.912262 -0.54306,0.547699c-0.723816,-0.36377 -0.542236,0.182251 -3.255142,-0.547699c-2.712067,-0.729156 -3.073578,-2.551208 -3.435089,-1.276001c-0.361511,1.276001 0.180756,2.006775 1.808319,3.282806c1.62677,1.276794 4.339676,1.640564 3.61586,2.918213c-0.723007,1.276794 -0.723007,1.276794 -1.265274,2.005981c-0.54306,0.72995 0.723022,0.182251 -0.54306,0.72995c-1.265244,0.546844 -1.989059,2.918213 -2.531342,2.918213c-0.542252,0 -0.904556,0.911438 -1.627563,0.546844c-0.722992,-0.365356 -2.530518,-1.641388 -2.892838,-0.912231c-0.361496,0.728333 -1.085297,-0.912231 -0.904556,1.640594c0.181534,2.552826 0.54306,4.011932 -0.361511,4.559601c-0.903763,0.546875 -3.074402,0 -3.074402,0l-0.361481,-0.912231l-1.265289,0.364563c0,0 -0.542236,2.188263 0.361526,2.552856c0.903763,0.364563 0.723007,0.728333 1.62677,1.822876c0.904556,1.094513 0.362289,3.100494 0.362289,3.100494s0,0.547668 -0.903763,1.459106c-0.903763,0.911438 -1.266052,1.641388 -1.446823,2.188263c-0.181549,0.546875 -1.266052,2.918213 0.361526,2.735107c1.62677,-0.183075 2.893631,-1.094513 2.893631,1.8237c0,2.917419 0.723007,2.189056 -0.18074,4.194244c-0.904572,2.005981 -1.627594,2.188232 -1.808334,4.011108c-0.179947,1.8237 0.181549,2.005981 0.54306,3.100525c0.361496,1.094543 1.266052,0.546875 0.361496,1.094543c-0.902145,0.546844 -3.614227,0.000824 -3.614227,0.000824z" fill="#ff7f00"/>
   <path d="m115.484047,175.913147l-1.265266,-1.822876c0,0 -0.542259,-1.095352 -1.446815,-1.276825s-2.893639,-2.552841 -2.893639,-2.552841s-0.903763,-0.729141 -0.903763,-2.005157c0,-1.276825 -0.723816,-3.281982 -0.181557,-5.470245c0.54306,-2.187454 0.723816,-4.923386 0.54306,-5.653351c-0.181557,-0.729141 0.903763,-0.911438 -0.361504,-1.641388c-1.26606,-0.729156 -3.797409,-0.911438 -5.424973,-0.911438c-1.62677,0 -3.616646,0.547668 -3.978157,0.729156c-0.361504,0.182281 1.989075,-5.470245 2.350586,-6.381683c0.361504,-0.911438 1.989067,-4.924194 1.989067,-5.470245c0,-0.547684 0.542267,-0.729965 -0.542252,-1.458313c-1.084511,-0.72995 -2.89283,-1.094528 -3.978149,-0.547684c-1.084518,0.547684 -0.903763,-0.729141 -1.807518,1.458313c-0.90377,2.189072 -1.808327,4.559616 -2.893639,4.924194c-1.084518,0.365387 -3.254349,1.459106 -3.254349,1.459106s-2.712082,-0.182281 -3.616646,-0.364578c-0.903763,-0.182281 -4.701164,-2.188263 -5.424171,-3.464264c-0.723015,-1.276825 -1.084511,-4.012772 -1.084511,-5.287964c0,-1.276825 1.988274,-5.105667 1.807518,-6.017914c-0.180748,-0.911438 1.989876,-4.558823 1.808327,-5.106491c-0.181557,-0.54686 0.361496,-2.370537 0.903755,-3.099693s3.25515,-1.641403 3.978149,-2.370544c0.723015,-0.729965 1.989082,-1.640594 3.254341,-2.005974s2.351395,-0.729156 3.255157,-0.729156s3.254333,-2.005974 3.615845,0c0.362297,2.005165 1.989876,1.276009 2.893631,1.458305c0.90377,0.183098 1.08532,1.094528 2.531342,-1.276009c1.446815,-2.371361 2.89283,-3.10051 2.89283,-2.553658c0,0.547684 2.350586,-0.181473 2.712097,0.365387s1.08532,-0.365387 2.350571,0.729164c1.266075,1.094528 3.073593,1.27681 2.892838,1.822868c-0.180748,0.54686 0.723015,0.54686 0.723015,1.094536c0,0.546852 0.723816,-1.276825 0.723816,2.005157c0,3.282799 0.903763,5.288773 0.903763,5.288773s1.265266,2.735931 1.807526,2.188263c0.542244,-0.546875 1.626747,-2.005173 1.626747,-2.005173s1.808319,-1.094528 0.543068,-4.924179c-1.266068,-3.828865 -0.361496,-4.923393 -0.723,-6.200211c-0.362328,-1.276825 -0.362328,-2.00679 1.80751,-3.647369c2.169838,-1.640594 7.413254,-5.287964 8.679321,-6.017113c1.265259,-0.729156 4.158096,-2.73513 4.158096,-2.73513s1.084518,-0.54686 1.266083,-2.005966c0.18074,-1.458305 3.615829,-4.011948 3.797394,-4.741096c0.181564,-0.729149 2.532135,-2.552025 2.532135,-2.552025s2.530518,-1.459923 2.349777,-2.370552c-0.180756,-0.911438 3.255142,-2.552025 3.797394,-2.552025c0.542252,0 3.435913,0.910629 3.435913,-0.730774c0,-1.640579 0,-2.005974 1.808304,-3.464264c1.807526,-1.458305 4.158096,-3.647377 5.062668,-3.647377c0.903763,0 3.97818,-1.639778 5.243423,-2.005165c1.266083,-0.365379 5.244232,-2.189064 1.627579,0c-3.616638,2.187454 -1.266068,0.911438 -1.989075,2.735123c-0.722214,1.822876 -1.266083,4.194237 2.169815,1.458305c3.435913,-2.735123 3.254364,-3.282799 4.520416,-3.464279c1.266068,-0.182281 0.361511,0.546867 3.073578,-0.365379c2.712906,-0.911438 2.893661,-1.276016 2.893661,-1.276016s1.266068,-1.094536 0.542252,-1.640587c-0.723007,-0.547668 0.723816,-1.276825 -1.98909,-0.183098c-2.712082,1.094536 -2.531326,1.276825 -4.339645,0.729149c-1.807526,-0.54686 -4.520416,-0.365387 -2.531326,-2.189072c1.989075,-1.822876 4.520386,-2.370544 2.892822,-3.099693c-1.626755,-0.729156 -5.78566,0.183098 -6.327927,0.364571c-0.54306,0.182289 -1.808304,-0.182289 -2.893646,0c-1.084503,0.182289 -0.723007,-1.457489 0,-1.822876c0.723801,-0.365379 3.074402,-1.459915 5.967239,-2.189064c2.892838,-0.729156 9.945389,-0.911438 11.572159,-0.911438s3.7966,0.365379 5.062653,-0.546867c1.265274,-0.911438 3.797424,-2.369736 4.15892,-3.100502c0.362305,-0.729156 1.808304,-1.822876 1.808304,-1.822876s1.626785,-1.641399 0.723038,-2.370552c-0.903778,-0.729153 -1.808334,-2.370552 -2.531342,-2.00597c-0.723022,0.364571 -0.179962,2.553646 -1.62677,0.182285c-1.446823,-2.36974 -1.266068,-2.735123 -1.98909,-3.28199c-0.722992,-0.546856 -1.446808,-0.183094 -0.903763,-2.735123c0.542282,-2.552834 0.361526,-3.647369 0.361526,-3.647369s0.542236,-2.18745 0,-2.369736c-0.54306,-0.183102 -0.903778,-0.729153 -1.807541,-0.183102c-0.904556,0.546864 -5.967224,3.10051 -7.051743,3.647373c-1.085312,0.546864 -2.532135,-2.188259 -1.989853,-3.464272c0.543045,-1.277634 0.18074,-0.547676 -0.542282,-2.370552c-0.722992,-1.823685 -3.615845,-2.189068 -4.701157,-2.189068s-3.615845,-1.641399 -4.339661,-0.546864c-0.723007,1.093723 -4.519608,4.557999 -5.244232,4.923382c-0.722992,0.365387 -1.80751,-3.099697 -2.349762,2.552837c-0.54306,5.654152 1.989075,7.294743 -0.903748,7.659321s-5.424988,2.005161 -5.424988,2.005161s-2.349777,0.183094 -2.349777,1.641399c0,1.459915 -0.903763,4.923382 -1.989868,5.28796c-1.084534,0.365379 -3.797424,-0.18148 -4.701172,-1.276016c-0.903763,-1.094536 0.180756,-5.105671 0.180756,-5.105671l1.627563,-1.641396c0,0 -11.572144,-1.822876 -11.392197,-2.552837c0.181549,-0.729153 -3.435104,-2.005161 -3.7966,-3.099701c-0.361526,-1.094536 -0.543076,-3.46508 -0.180756,-4.376518c0.361496,-0.911438 5.243408,-5.28796 7.774734,-6.199398c2.531357,-0.912247 6.871017,-2.917412 8.137085,-3.282799c1.266052,-0.364571 3.435074,-0.182285 4.15889,-1.093723c0.723022,-0.912247 0.903763,-2.552837 0.903763,-2.552837s-0.361496,-2.553646 0.361511,-2.189068c0.723007,0.365383 1.989075,0.912247 2.16983,1.459106c0.181549,0.546867 0.181549,1.823689 1.446823,0.363766c1.266052,-1.458298 2.893631,-2.00597 4.339645,-2.73431c1.446823,-0.729961 3.61586,-0.546864 4.882721,-1.276016c1.265274,-0.729147 3.435089,-1.459108 3.61586,-3.282793c0.18074,-1.822876 -0.542267,-1.276012 -1.446838,-1.459112c-0.903748,-0.181477 0.361496,0.1831 -2.712082,1.641399c-3.074387,1.4583 -2.16983,0.364574 -4.339661,1.4583c-2.16983,1.094536 -2.351379,1.276823 -2.531342,0.365385c-0.181549,-0.912249 0.361511,-2.370548 0.361511,-2.370548s0.181564,-0.183098 -1.084503,-0.546862c-1.266083,-0.364574 -1.266083,0.182287 -1.446823,-1.4583c-0.180756,-1.641399 0.903763,-4.011948 -0.903763,-3.282797c-1.808319,0.729149 -3.435089,-0.546862 -4.701157,3.099697c-1.266083,3.646561 -5.605713,7.47703 -6.691055,6.564783c-1.084503,-0.911438 -1.265244,-1.094536 -2.169815,-1.094536s-2.16983,-1.093725 -3.797409,-1.276011s-6.510284,-0.182289 -7.774742,0c-1.266075,0.183096 -2.712097,-0.729153 -3.798225,0.365385c-1.084511,1.093723 -2.711273,2.552834 -2.711273,3.10051c0,0.54686 -1.627571,-2.006786 -2.169838,-1.823689c-0.542259,0.182289 -1.989876,-0.729149 -3.615837,-0.729149c-1.627579,0 -2.712898,-0.912249 -3.254349,-0.912249c-0.542259,0 0.541451,-1.459112 0,-1.641397c-0.542259,-0.181477 -12.296768,-0.546864 -12.296768,-0.546864s-3.7966,-1.4583 -5.242615,-1.276012c-1.446815,0.182285 -5.424171,0.363766 -8.499359,0.911438c-3.074394,0.546862 -7.594803,2.370546 -9.040817,2.552835c-1.446815,0.183096 -4.701172,0.183096 -5.243416,-0.729151c-0.54306,-0.911438 0.180748,-0.729149 -0.54306,-0.911438c-0.723007,-0.181477 -0.179955,-0.546862 -1.807518,-1.822876c-1.627579,-1.276823 0.723808,-2.370546 -2.531334,-2.370546c-3.254356,0 -5.243423,-0.1831 -8.136272,0c-2.893635,0.182287 -8.860062,1.640587 -9.583069,1.4583c-0.723011,-0.182285 -6.509483,0.912247 -7.414051,0.365385c-0.903763,-0.54767 -5.424969,2.005161 -6.32793,1.822876c-0.903767,-0.182287 -4.339663,0.183096 -5.24342,0.729961c-0.904566,0.54767 -5.244217,1.640585 -3.797403,2.552834c1.446018,0.911436 1.265265,1.822874 1.446018,2.37055c0.181555,0.54686 -1.446018,1.822876 -1.446018,1.822876s-0.362307,0 -2.350584,-0.729153c-1.989071,-0.729961 -4.158901,-1.093723 -5.063467,-0.546864c-0.903759,0.546864 -2.531332,1.642212 -2.16983,2.371357c0.362312,0.729153 2.892838,2.370552 3.25515,1.822876c0.3615,-0.54686 1.266064,-1.640587 2.350576,-1.458298c1.085318,0.183098 2.712891,-0.729149 1.266071,1.094536c-1.446823,1.822876 -2.712891,2.735123 -3.616648,2.918221c-0.903767,0.181477 -3.073591,0.363766 -5.062668,0.546864c-1.989879,0.183094 -1.809132,-0.729153 -3.616644,1.094532c-1.807524,1.822876 -2.531331,0.729153 -2.892842,2.735123c-0.361501,2.005165 -0.723001,2.005165 0,2.552837c0.723006,0.546864 -1.446813,0.729153 0.180748,1.276012c1.626781,0.547672 3.615848,1.094536 3.435101,1.640587c-0.181554,0.547676 1.808319,-0.728336 0.723006,0.729153c-1.085307,1.459923 -1.807524,2.735123 0.3615,1.276825c2.16983,-1.458302 3.435101,-0.365387 5.24342,-1.276825c1.808325,-0.911438 3.61665,-1.093723 4.701174,-1.822876c1.085312,-0.729961 1.627571,-1.822876 3.255142,-2.371357c1.627571,-0.546864 0.542259,0.183098 0.723007,1.094536c0.180752,0.911434 0,1.093727 1.085318,0.363766c1.084513,-0.729153 1.084513,-0.181477 2.531336,-1.093727c1.446014,-0.911438 3.073589,-1.823689 4.158905,-1.276825c1.084507,0.547676 1.446014,0.547676 2.169823,0.547676c0.723011,0 -0.903759,-0.183102 0.723011,0c1.627575,0.181477 -0.723011,-0.547676 4.701164,0.729149c5.424973,1.276012 6.871796,0.364574 7.232494,2.370548c0.362305,2.005974 1.08532,-0.183098 1.989079,1.093723c0.903759,1.276016 1.446819,0.183102 1.989075,2.370548c0.542259,2.189072 0,8.206184 -0.361504,8.935329c-0.361504,0.729153 -0.542259,0.729153 -0.361504,2.370552c0.180752,1.640587 2.350578,9.483002 1.627567,10.029053s-2.350574,0.729149 -2.350574,0.729149l-0.903763,3.28199c0,0 -1.446014,2.735123 -2.712086,4.194237c-1.266068,1.458298 -2.892838,3.282791 -3.797401,4.557999c-0.903759,1.276817 -1.627571,3.465889 -2.892834,4.741898c-1.265266,1.276016 -2.350586,0.729156 -1.989079,3.464279c0.3615,2.735123 0,5.652527 0.3615,7.659309c0.362312,2.005974 1.266071,4.741104 1.989079,5.83564c0.723007,1.093727 1.266068,1.093727 2.531334,2.005165c1.266068,0.911438 2.893642,2.006775 2.712082,2.918213c-0.180748,0.911438 0.180759,6.565598 0.180759,6.565598s1.085312,1.822868 1.265263,3.828842c0.181557,2.00679 1.446819,4.011955 1.446819,4.011955l1.085316,2.371353c0,0 0.542255,0.183105 1.266071,1.640594c0.723007,1.459106 0.723007,1.459106 0.903759,2.187439c0.181557,0.730774 0.181557,0.547668 0.181557,0.730774c0,0.181488 -0.181557,-3.10051 -0.54306,-4.012756c-0.361504,-0.911438 -0.361504,-2.005157 -0.723011,-3.099701c-0.361504,-1.094528 0.180756,-2.371353 -0.903759,-4.01194c-1.084515,-1.640594 -1.084515,-1.823692 -1.62677,-3.465088c-0.542255,-1.640579 -1.266068,-3.464272 -0.542255,-3.829666c0.723007,-0.363754 1.265266,-2.734306 2.712082,0c1.446022,2.73513 1.627575,2.00679 1.808331,4.195053c0.179951,2.188263 0.723007,2.918228 1.265259,3.82885c0.542263,0.911438 1.807526,4.012756 2.531334,5.287964c0.723011,1.27681 0,-0.729156 1.62677,1.823685c1.627571,2.552826 1.809132,3.099701 2.712887,5.105667s1.446823,2.005966 1.989082,3.464279c0.542252,1.459915 0.180748,1.094528 -0.181553,2.735107c-0.361507,1.640594 0.3615,3.465088 0.3615,3.465088s2.531326,0.911438 2.712082,1.458313c0.180756,0.546844 2.712097,1.458282 3.074402,2.188248c0.361496,0.729965 2.712082,1.640594 2.712082,1.640594s1.989067,1.276825 2.711281,1.641403c0.723808,0.364563 2.89444,0.729965 2.89444,0.729965s1.446022,0.365372 1.988281,0.546844c0.542252,0.182297 2.169823,0.182297 2.169823,0.182297s1.446823,-1.093735 1.989075,-0.729141c0.542259,0.363754 1.808327,-0.729965 2.350586,0.181473c0.542259,0.912231 1.627571,0.912231 2.16983,1.642197c0.542259,0.729156 1.084518,0.729156 1.989075,1.640594s1.808319,0.729141 2.712082,1.458298c0.90377,0.729156 1.62677,0.729156 2.71209,0.729156c1.084511,0 1.084511,0 1.808319,0.18309c0.722206,0.182297 1.084518,-0.547668 1.807526,0.365387c0.723007,0.911438 1.265259,1.458298 1.807518,2.369736c0.542267,0.911438 1.808319,0.911438 1.989082,2.37056c0.180748,1.458298 0.542259,1.277618 0.542259,2.552826c0,1.276825 0.723,1.823685 1.26606,2.189072c0.541451,0.36377 2.530533,2.186646 2.530533,2.186646l2.71209,0.547668l2.169823,1.641403l2.352989,0.726715z" fill="#ff7f00"/>
   <path d="m173.436386,6.50564l10.849152,-1.367561c0,0 3.7966,0 5.695709,-1.367562c1.898285,-1.367562 0,-1.367562 5.695679,-2.461287c5.695709,-1.094535 4.068924,-1.641398 7.052551,-1.094535c2.982819,0.547673 3.7966,0.547673 7.051743,1.094535c3.254333,0.546862 4.068146,-0.273026 7.050949,0.546862c2.983612,0.820699 4.339645,0.546863 6.781021,0.546863c2.440567,0 3.797394,0 7.593994,0c3.797394,0 7.323288,-2.188261 8.679321,-0.820699s2.169815,0.820699 6.780991,1.367562c4.610397,0.546863 6.509521,-0.547673 8.407776,0c1.899124,0.546863 5.154282,-0.273026 8.950882,0c3.7966,0.273026 5.695709,-0.273026 7.051727,-0.273026s2.711273,-1.915234 4.610382,-0.273836c1.899109,1.641398 4.339661,-0.546863 4.610413,1.641398c0.271545,2.188261 3.797363,0.546862 0.271545,2.188261c-3.525909,1.641398 -2.983643,1.367561 -5.425018,3.555822c-2.440552,2.18826 1.627594,4.102685 -3.525848,6.01792c-5.153442,1.914424 -5.967255,-1.094536 -7.323303,2.18826c-1.356018,3.281984 0,4.102684 -0.270691,5.744083c-0.271545,1.640587 -0.813812,1.914423 -2.441376,3.281986c-1.626801,1.367561 -1.626801,0 -5.424164,0.8207c-3.797409,0.820696 -6.509506,1.641396 -8.136261,1.641396c-1.627563,0 -5.153442,1.367561 -6.238754,1.914427c-1.085312,0.547672 1.899078,1.367559 -3.797424,3.008955c-5.695694,1.641399 -7.052536,1.368378 -8.679306,3.555824c-1.627548,2.189072 -1.085327,2.462906 -2.169846,3.830467c-1.085281,1.367561 -4.33963,6.838623 -5.967209,5.471062c-1.626785,-1.367561 -2.44136,-1.09454 -3.797394,-2.462101c-1.356049,-1.367561 -2.16983,-3.281982 -2.983627,-4.376522c-0.813782,-1.094532 -1.085297,-3.829659 -1.356033,-5.471054s-2.712891,-5.470249 0,-4.923384c2.712082,0.546862 4.339661,0.273834 5.153412,-0.273027c0.813797,-0.547672 1.627579,-2.462095 1.627579,-2.462095s-0.270721,-3.008961 -1.085297,-4.650358c-0.813766,-1.641399 -0.270737,-3.008961 -1.626785,-4.649548c-1.356049,-1.641397 -1.356049,-1.367561 -3.255112,-3.008961c-1.898315,-1.641397 -1.356064,-2.462096 -4.339676,-2.735123c-2.983612,-0.273026 -3.797409,-1.094536 -4.882721,-0.820699c-1.084518,0.273026 -4.610382,-1.915235 -0.813766,-2.188261c3.797394,-0.273836 7.323242,0.273026 7.323242,0.273026s4.881927,-2.188261 3.255157,-2.461287c-1.626755,-0.273836 2.440552,-2.735933 -1.356033,-1.915234c-3.797409,0.820699 -8.136261,1.915234 -9.221573,2.18826c-1.084503,0.273026 -3.797409,0.546863 -6.509506,1.367562c-2.711273,0.820699 -5.967209,0.547672 -7.593994,2.462096c-1.627579,1.914426 0,2.188261 -1.627579,1.914426c-1.626755,-0.273027 1.356049,-1.914426 -2.440536,0c-3.797409,1.915233 -2.712082,1.641397 -4.610382,1.094535c-1.899124,-0.546864 -3.255157,-1.367562 -3.255157,-1.367562s2.442184,-0.273836 -1.084518,-0.546863c-3.525864,-0.273026 -3.525864,-0.273026 -4.881897,-1.915234c-1.356064,-1.641398 -0.542267,-1.641398 0.270721,-2.188261c0.81459,-0.547673 1.356842,-1.642209 1.356842,-1.642209z" fill="#ff7f00"/>
   <path d="m167.469162,18.814505c-1.356033,1.367561 -4.611206,3.282795 -3.796585,4.103495c0.813766,0.8207 1.356018,3.829659 2.983597,3.008959c1.626785,-0.820698 -0.27153,-3.55582 5.966415,-1.367561c6.238785,2.188261 5.695709,-0.273026 7.051758,3.008961c1.356049,3.281984 2.440552,5.743273 1.62677,6.564783c-0.812988,0.820698 -1.084518,1.641399 -3.797409,2.462093c-2.712082,0.820702 -3.797394,1.915237 -1.8983,3.28199c1.8983,1.367561 5.424988,2.735123 7.051743,3.556629c1.627579,0.819889 6.509506,1.09454 4.06813,-1.640587s0.542252,-3.556633 0.542252,-3.556633s4.611206,3.556633 2.984436,-0.546864c-1.627579,-4.102684 -2.712891,-4.102684 -1.627579,-4.102684s3.254349,1.367561 3.254349,1.367561l1.085297,-2.188259l-1.085297,-3.555822l-3.525879,-3.555822c0,0 2.982819,-2.735123 -1.085327,-3.281986c-4.06813,-0.546862 -3.797379,-0.546862 -5.967209,-1.915236c-2.16983,-1.367561 -2.440567,-1.914423 -6.509506,-1.093725c-4.068115,0.8207 -5.424164,1.367563 -5.424164,1.367563l-1.897491,-1.916855z" fill="#ff7f00"/>
   <path d="m106.986282,22.0973c1.627579,-1.641397 5.967232,-5.470245 7.594795,-4.37652c1.626785,1.093725 4.067337,-0.820698 5.966438,0.820698c1.898308,1.641399 4.068115,3.555822 5.695694,4.102686c1.627571,0.546862 3.525879,-1.367563 5.153458,-0.546864c1.626755,0.8207 7.322449,-4.102684 6.237946,-0.273026c-1.085297,3.82966 1.356049,4.923384 -1.627579,5.197222c-2.983612,0.273836 -6.237946,2.462093 -7.594788,1.641397c-1.356049,-0.8207 -2.44136,-1.641397 -4.611198,-0.546865c-2.169838,1.093727 -1.084511,1.093727 -3.525871,0.546865c-2.440552,-0.546865 -2.982819,0.546862 -3.525063,-0.273836c-0.543068,-0.819891 -2.16983,-0.546864 -1.899101,-3.008961c0.270729,-2.461287 1.084503,-2.188261 -0.54306,-2.188261c-1.626762,0 -2.982811,0.273838 -4.068138,-0.546862c-1.084511,-0.8207 -3.253532,-0.547674 -3.253532,-0.547674z" fill="#ff7f00"/>
  </g>
 </g>
</svg>